<svg width="25" height="24" viewBox="0 0 25 24" fill="none" xmlns="http://www.w3.org/2000/svg">
<path d="M2.5 6C2.5 4.11438 2.5 3.17157 3.08579 2.58579C3.67157 2 4.61438 2 6.5 2C8.38562 2 9.32843 2 9.91421 2.58579C10.5 3.17157 10.5 4.11438 10.5 6V8C10.5 9.88562 10.5 10.8284 9.91421 11.4142C9.32843 12 8.38562 12 6.5 12C4.61438 12 3.67157 12 3.08579 11.4142C2.5 10.8284 2.5 9.88562 2.5 8V6Z" stroke="#0D0D0D" stroke-width="1.5"/>
<path d="M2.5 19C2.5 18.0681 2.5 17.6022 2.65224 17.2346C2.85523 16.7446 3.24458 16.3552 3.73463 16.1522C4.10218 16 4.56812 16 5.5 16H7.5C8.43188 16 8.89782 16 9.26537 16.1522C9.75542 16.3552 10.1448 16.7446 10.3478 17.2346C10.5 17.6022 10.5 18.0681 10.5 19C10.5 19.9319 10.5 20.3978 10.3478 20.7654C10.1448 21.2554 9.75542 21.6448 9.26537 21.8478C8.89782 22 8.43188 22 7.5 22H5.5C4.56812 22 4.10218 22 3.73463 21.8478C3.24458 21.6448 2.85523 21.2554 2.65224 20.7654C2.5 20.3978 2.5 19.9319 2.5 19Z" stroke="#0D0D0D" stroke-width="1.5"/>
<path d="M14.5 16C14.5 14.1144 14.5 13.1716 15.0858 12.5858C15.6716 12 16.6144 12 18.5 12C20.3856 12 21.3284 12 21.9142 12.5858C22.5 13.1716 22.5 14.1144 22.5 16V18C22.5 19.8856 22.5 20.8284 21.9142 21.4142C21.3284 22 20.3856 22 18.5 22C16.6144 22 15.6716 22 15.0858 21.4142C14.5 20.8284 14.5 19.8856 14.5 18V16Z" stroke="#0D0D0D" stroke-width="1.5"/>
<path d="M14.5 5C14.5 4.06812 14.5 3.60218 14.6522 3.23463C14.8552 2.74458 15.2446 2.35523 15.7346 2.15224C16.1022 2 16.5681 2 17.5 2H19.5C20.4319 2 20.8978 2 21.2654 2.15224C21.7554 2.35523 22.1448 2.74458 22.3478 3.23463C22.5 3.60218 22.5 4.06812 22.5 5C22.5 5.93188 22.5 6.39782 22.3478 6.76537C22.1448 7.25542 21.7554 7.64477 21.2654 7.84776C20.8978 8 20.4319 8 19.5 8H17.5C16.5681 8 16.1022 8 15.7346 7.84776C15.2446 7.64477 14.8552 7.25542 14.6522 6.76537C14.5 6.39782 14.5 5.93188 14.5 5Z" stroke="#0D0D0D" stroke-width="1.5"/>
</svg>
