<svg width="24" height="24" viewBox="0 0 24 24" fill="none" xmlns="http://www.w3.org/2000/svg">
<path d="M21.9993 6.99987C22.0108 5.99758 21.7177 5.01542 21.1589 4.18332C20.6 3.35122 19.8017 2.70838 18.8696 2.33986C17.9374 1.97134 16.9154 1.89448 15.9386 2.11948C14.9618 2.34447 14.0763 2.86069 13.3993 3.59987C11.8993 5.19987 11.7993 5.39987 8.39933 6.19987C6.98351 6.48386 5.67095 7.14577 4.60089 8.11539C3.53082 9.08501 2.74315 10.3262 2.32143 11.7073C1.8997 13.0883 1.85965 14.5578 2.20552 15.9598C2.55139 17.3618 3.27029 18.644 4.28595 19.6705C5.30161 20.6969 6.57617 21.4294 7.97442 21.7901C9.37268 22.1507 10.8425 22.1262 12.2279 21.7192C13.6134 21.3121 14.8628 20.5376 15.8437 19.4778C16.8246 18.4181 17.5004 17.1126 17.7993 15.6999C18.4993 12.2999 18.7993 12.0999 20.3993 10.6999C21.3993 9.69987 21.9993 8.39987 21.9993 6.99987Z" stroke="#0D0D0D" stroke-width="1.5" stroke-linecap="round" stroke-linejoin="round"/>
<path d="M10 17.5C11.933 17.5 13.5 15.933 13.5 14C13.5 12.067 11.933 10.5 10 10.5C8.067 10.5 6.5 12.067 6.5 14C6.5 15.933 8.067 17.5 10 17.5Z" stroke="#0D0D0D" stroke-width="1.5" stroke-linecap="round" stroke-linejoin="round"/>
</svg>
