<svg width="20" height="16" viewBox="0 0 20 16" fill="none" xmlns="http://www.w3.org/2000/svg">
<path d="M11.835 -2C12.5266 -2 13.0757 -1.99997 13.5176 -1.96387C13.9652 -1.92728 14.3468 -1.85089 14.6963 -1.67285C15.2607 -1.38527 15.7202 -0.926699 16.0078 -0.362305C16.186 -0.012681 16.2622 0.369582 16.2988 0.817383C16.3349 1.25933 16.335 1.80823 16.335 2.5V13.5C16.335 13.6782 16.24 13.8431 16.0859 13.9326C15.9319 14.022 15.7416 14.0227 15.5869 13.9346L10.001 10.7422L4.41602 13.9346C4.26132 14.0229 4.07107 14.022 3.91699 13.9326C3.76283 13.8432 3.66797 13.6782 3.66797 13.5V2.5C3.66797 1.80822 3.668 1.25934 3.7041 0.817383C3.74069 0.369582 3.81698 -0.0126811 3.99512 -0.362305C4.28269 -0.926528 4.74144 -1.38528 5.30566 -1.67285C5.65529 -1.85099 6.03755 -1.92728 6.48535 -1.96387C6.9273 -1.99997 7.47618 -2 8.16797 -2H11.835Z" stroke-linecap="round" stroke-linejoin="round"/>
</svg>
