<svg width="25" height="24" viewBox="0 0 25 24" fill="none" xmlns="http://www.w3.org/2000/svg">
<path d="M4.72222 21.9948V18.4451C4.72222 17.1737 4.38927 16.5128 3.73482 15.4078C2.9503 14.0833 2.5 12.5375 2.5 10.8866C2.5 5.97866 6.47969 2 11.3889 2C16.2981 2 20.2778 5.97866 20.2778 10.8866C20.2778 11.4663 20.2778 11.7562 20.302 11.9187C20.3598 12.3072 20.5411 12.6414 20.7194 12.9873L22.5 16.4407L21.1006 17.1402C20.695 17.3429 20.4923 17.4443 20.351 17.6314C20.2097 17.8184 20.17 18.0296 20.0904 18.4519L20.0826 18.4931C19.9004 19.4606 19.6993 20.5286 19.1329 21.2024C18.9329 21.4403 18.6853 21.6336 18.4059 21.7699C17.9447 21.9948 17.3777 21.9948 16.2437 21.9948C15.719 21.9948 15.1928 22.0069 14.6682 21.9942C13.4247 21.9639 12.5 20.9184 12.5 19.7044" stroke="#0D0D0D" stroke-width="2" stroke-linecap="round" stroke-linejoin="round"/>
<path d="M14.888 10.5315C14.4617 10.5315 14.0729 10.3702 13.7784 10.1048M14.888 10.5315C14.888 11.6774 14.2241 12.7658 12.9461 12.7658C11.6681 12.7658 11.0043 13.8541 11.0043 15M14.888 10.5315C17.0373 10.5315 17.0373 7.18017 14.888 7.18017C14.6927 7.18017 14.5053 7.21403 14.3312 7.27624C14.4362 4.77819 10.8349 4.1 10.0192 6.44018M10.0192 6.44018C10.6133 6.8411 11.0043 7.52323 11.0043 8.29729M10.0192 6.44018C8.16742 5.19034 5.69883 7.4331 6.87324 9.43277C4.90226 9.72827 5.11299 12.7658 7.1205 12.7658C7.68344 12.7658 8.18111 12.4844 8.48234 12.0538" stroke="#0D0D0D" stroke-width="2" stroke-linecap="round" stroke-linejoin="round"/>
</svg>
