<svg xmlns="http://www.w3.org/2000/svg" width="15" height="14" viewBox="0 0 15 14" fill="none">
  <path d="M12.75 5.83366H2.25M9.83333 1.16699V3.50033M5.16667 1.16699V3.50033M5.05 12.8337H9.95C10.9301 12.8337 11.4201 12.8337 11.7945 12.6429C12.1238 12.4751 12.3915 12.2074 12.5593 11.8781C12.75 11.5038 12.75 11.0138 12.75 10.0337V5.13366C12.75 4.15357 12.75 3.66352 12.5593 3.28918C12.3915 2.95989 12.1238 2.69218 11.7945 2.5244C11.4201 2.33366 10.9301 2.33366 9.95 2.33366H5.05C4.06991 2.33366 3.57986 2.33366 3.20552 2.5244C2.87623 2.69218 2.60852 2.95989 2.44074 3.28918C2.25 3.66352 2.25 4.15357 2.25 5.13366V10.0337C2.25 11.0138 2.25 11.5038 2.44074 11.8781C2.60852 12.2074 2.87623 12.4751 3.20552 12.6429C3.57986 12.8337 4.06991 12.8337 5.05 12.8337Z" stroke-width="1.2" stroke-linecap="round" stroke-linejoin="round"/>
</svg>