<svg width="17" height="16" viewBox="0 0 17 16" fill="none" xmlns="http://www.w3.org/2000/svg">
<path d="M2.16636 6H14.833M7.16636 2L5.83302 6L8.49969 13.6667L11.1664 6L9.83302 2M8.90941 13.5083L14.8818 6.34143C14.9831 6.21997 15.0337 6.15924 15.053 6.09144C15.0701 6.03167 15.0701 5.96833 15.053 5.90856C15.0337 5.84076 14.9831 5.78003 14.8818 5.65857L11.9929 2.1919C11.9342 2.12136 11.9048 2.08609 11.8687 2.06074C11.8368 2.03827 11.8012 2.02159 11.7635 2.01145C11.721 2 11.675 2 11.5832 2H5.41616C5.32434 2 5.27843 2 5.23588 2.01145C5.19819 2.02159 5.16257 2.03827 5.13064 2.06074C5.09461 2.08609 5.06522 2.12136 5.00644 2.1919L2.11755 5.65857C2.01633 5.78003 1.96572 5.84076 1.94638 5.90855C1.92933 5.96832 1.92933 6.03167 1.94638 6.09144C1.96572 6.15924 2.01633 6.21997 2.11755 6.34143L8.08997 13.5083C8.23068 13.6772 8.30103 13.7616 8.38526 13.7924C8.45916 13.8194 8.54023 13.8194 8.61412 13.7924C8.69835 13.7616 8.76871 13.6772 8.90941 13.5083Z" stroke="white" stroke-width="1.5" stroke-linecap="round" stroke-linejoin="round"/>
</svg>
