<svg width="25" height="24" viewBox="0 0 25 24" fill="none" xmlns="http://www.w3.org/2000/svg">
<path d="M10.5 9.25524C8.10631 7.95835 5.58056 5.71428 3.5 2M12.1155 4.41901C10.0805 3.0835 7.59742 3.64165 6.56938 5.66567C5.54134 7.68969 6.35764 10.4131 8.39263 11.7486C10.235 12.9577 14.2672 14.2079 17.5 10.745C14.4706 9.45488 14.1505 5.75451 12.1155 4.41901Z" stroke="#0D0D0D" stroke-width="1.5" stroke-linecap="round" stroke-linejoin="round"/>
<path d="M4.5 11C3.86093 11.4709 3.5 12.0054 3.5 12.572C3.5 14.4652 7.52944 16 12.5 16C17.4706 16 21.5 14.4652 21.5 12.572C21.5 12.0054 21.1391 11.4709 20.5 11" stroke="#0D0D0D" stroke-width="1.5" stroke-linecap="round"/>
<path d="M21.5 13C21.5 16.5766 18.9936 19.7147 16.2951 21.4822C15.7402 21.8457 15.0804 22 14.4171 22H10.5829C9.91959 22 9.25976 21.8457 8.70486 21.4822C6.0064 19.7147 3.5 16.5766 3.5 13" stroke="#0D0D0D" stroke-width="1.5" stroke-linecap="round"/>
</svg>
