<svg width="16" height="18" viewBox="0 0 16 18" fill="none" xmlns="http://www.w3.org/2000/svg">
<path d="M6.01522 15.75C6.54407 16.2168 7.23875 16.5 7.99959 16.5C8.76042 16.5 9.45511 16.2168 9.98396 15.75M12.4996 6C12.4996 4.80653 12.0255 3.66193 11.1816 2.81802C10.3377 1.97411 9.19306 1.5 7.99959 1.5C6.80611 1.5 5.66152 1.97411 4.81761 2.81802C3.97369 3.66193 3.49959 4.80653 3.49959 6C3.49959 8.31764 2.91494 9.90447 2.26184 10.9541C1.71093 11.8394 1.43548 12.2821 1.44558 12.4056C1.45676 12.5423 1.48573 12.5944 1.59592 12.6762C1.69543 12.75 2.14403 12.75 3.04123 12.75H12.9579C13.8551 12.75 14.3037 12.75 14.4033 12.6762C14.5134 12.5944 14.5424 12.5423 14.5536 12.4056C14.5637 12.2821 14.2882 11.8394 13.7373 10.9541C13.0842 9.90447 12.4996 8.31764 12.4996 6Z" stroke="white" stroke-width="1.5" stroke-linecap="round" stroke-linejoin="round"/>
</svg>
