<svg width="16" height="16" viewBox="0 0 16 16" fill="none" xmlns="http://www.w3.org/2000/svg">
<path d="M11.334 2.66663H10.0007C9.63246 2.66663 9.33398 2.9651 9.33398 3.33329V12.6666C9.33398 13.0348 9.63246 13.3333 10.0007 13.3333H11.334C11.7022 13.3333 12.0007 13.0348 12.0007 12.6666V3.33329C12.0007 2.9651 11.7022 2.66663 11.334 2.66663Z" fill="#0D0D0D"/>
<path d="M6 2.66663H4.66667C4.29848 2.66663 4 2.9651 4 3.33329V12.6666C4 13.0348 4.29848 13.3333 4.66667 13.3333H6C6.36819 13.3333 6.66667 13.0348 6.66667 12.6666V3.33329C6.66667 2.9651 6.36819 2.66663 6 2.66663Z" fill="#0D0D0D"/>
</svg>
