<svg width="14" height="14" viewBox="0 0 14 14" fill="none" xmlns="http://www.w3.org/2000/svg">
<g clip-path="url(#clip0_1189_3574)">
<path d="M12.2507 12.2499H7.584M1.45898 12.5415L4.69606 11.2965C4.90311 11.2169 5.00663 11.177 5.10349 11.125C5.18952 11.0789 5.27153 11.0256 5.34867 10.9657C5.43552 10.8983 5.51395 10.8199 5.67081 10.663L12.2507 4.08319C12.895 3.43885 12.895 2.39418 12.2507 1.74985C11.6063 1.10552 10.5617 1.10552 9.91733 1.74985L3.33748 8.32969C3.18062 8.48655 3.10219 8.56498 3.0348 8.65183C2.97494 8.72897 2.92164 8.81098 2.87545 8.89702C2.82346 8.99387 2.78365 9.0974 2.70401 9.30445L1.45898 12.5415ZM1.45898 12.5415L2.65955 9.42008C2.74547 9.19671 2.78842 9.08502 2.8621 9.03387C2.92649 8.98916 3.00616 8.97225 3.08316 8.98695C3.17126 9.00378 3.25587 9.08839 3.4251 9.25762L4.7429 10.5754C4.91213 10.7446 4.99674 10.8293 5.01356 10.9174C5.02827 10.9944 5.01136 11.074 4.96665 11.1384C4.91549 11.2121 4.80381 11.2551 4.58044 11.341L1.45898 12.5415Z" stroke="#867EBD" stroke-width="1.5" stroke-linecap="round" stroke-linejoin="round"/>
</g>
<defs>
<clipPath id="clip0_1189_3574">
<rect width="14" height="14" fill="white"/>
</clipPath>
</defs>
</svg>
