<svg xmlns="http://www.w3.org/2000/svg" width="17" height="16" viewBox="0 0 17 16" fill="none">
  <path d="M14.4994 13.9996H9.16603M2.16602 14.3329L5.86553 12.91C6.10216 12.819 6.22047 12.7735 6.33116 12.7141C6.42948 12.6613 6.52322 12.6004 6.61138 12.532C6.71063 12.4549 6.80027 12.3653 6.97954 12.186L14.4994 4.66622C15.2357 3.92984 15.2357 2.73593 14.4994 1.99955C13.763 1.26317 12.5691 1.26317 11.8327 1.99955L4.31287 9.51936C4.1336 9.69864 4.04396 9.78827 3.96694 9.88752C3.89853 9.97569 3.83762 10.0694 3.78484 10.1677C3.72542 10.2784 3.67991 10.3967 3.5889 10.6334L2.16602 14.3329ZM2.16602 14.3329L3.5381 10.7655C3.63628 10.5102 3.68537 10.3826 3.76958 10.3241C3.84316 10.273 3.93422 10.2537 4.02221 10.2705C4.1229 10.2898 4.2196 10.3865 4.413 10.5799L5.91906 12.0859C6.11246 12.2793 6.20916 12.376 6.22839 12.4767C6.2452 12.5647 6.22587 12.6558 6.17478 12.7293C6.11631 12.8135 5.98867 12.8626 5.7334 12.9608L2.16602 14.3329Z" stroke="white" stroke-width="1.5" stroke-linecap="round" stroke-linejoin="round"/>
</svg>