<svg xmlns="http://www.w3.org/2000/svg" width="12" height="12" viewBox="0 0 12 12" fill="none">
    <path d="M10.5 10.5002H6.50001M1.25 10.7502L4.02463 9.68299C4.2021 9.61473 4.29084 9.5806 4.37386 9.53603C4.4476 9.49645 4.5179 9.45077 4.58402 9.39946C4.65846 9.34169 4.72569 9.27447 4.86014 9.14001L10.5 3.50015C11.0523 2.94787 11.0523 2.05244 10.5 1.50015C9.94773 0.947867 9.0523 0.947866 8.50001 1.50015L2.86014 7.14001C2.72569 7.27446 2.65846 7.34169 2.6007 7.41613C2.54939 7.48225 2.5037 7.55255 2.46412 7.62629C2.41955 7.70931 2.38542 7.79805 2.31717 7.97552L1.25 10.7502ZM1.25 10.7502L2.27906 8.07463C2.3527 7.88317 2.38952 7.78744 2.45267 7.74359C2.50786 7.70527 2.57615 7.69078 2.64215 7.70338C2.71767 7.7178 2.79019 7.79033 2.93524 7.93538L4.06479 9.06493C4.20984 9.20997 4.28236 9.2825 4.29678 9.35802C4.30939 9.42401 4.29489 9.49231 4.25657 9.5475C4.21272 9.61065 4.11699 9.64747 3.92553 9.72111L1.25 10.7502Z" stroke-linecap="round" stroke-linejoin="round"/>
</svg>