<svg xmlns="http://www.w3.org/2000/svg" width="19" height="18" viewBox="0 0 19 18" fill="none">
<path d="M9.875 2.25H6.35C5.08988 2.25 4.45982 2.25 3.97852 2.49524C3.55516 2.71095 3.21095 3.05516 2.99524 3.47852C2.75 3.95982 2.75 4.58988 2.75 5.85V12.15C2.75 13.4101 2.75 14.0402 2.99524 14.5215C3.21095 14.9448 3.55516 15.289 3.97852 15.5048C4.45982 15.75 5.08988 15.75 6.35 15.75H13.25C13.9475 15.75 14.2962 15.75 14.5823 15.6733C15.3588 15.4653 15.9653 14.8588 16.1733 14.0823C16.25 13.7962 16.25 13.4475 16.25 12.75M14.75 6V1.5M12.5 3.75H17M8.375 6.375C8.375 7.20343 7.70343 7.875 6.875 7.875C6.04657 7.875 5.375 7.20343 5.375 6.375C5.375 5.54657 6.04657 4.875 6.875 4.875C7.70343 4.875 8.375 5.54657 8.375 6.375ZM11.7425 8.93861L5.39836 14.706C5.04152 15.0304 4.8631 15.1926 4.84732 15.3331C4.83364 15.4549 4.88034 15.5757 4.97239 15.6566C5.07858 15.75 5.31971 15.75 5.80196 15.75H12.842C13.9214 15.75 14.461 15.75 14.8849 15.5687C15.4171 15.341 15.841 14.9171 16.0687 14.3849C16.25 13.961 16.25 13.4214 16.25 12.342C16.25 11.9788 16.25 11.7972 16.2103 11.6281C16.1604 11.4156 16.0647 11.2165 15.9299 11.0448C15.8227 10.9082 15.6809 10.7947 15.3973 10.5678L13.2994 8.8895C13.0155 8.66243 12.8736 8.5489 12.7173 8.50883C12.5796 8.47352 12.4346 8.47809 12.2994 8.52202C12.146 8.57186 12.0115 8.69411 11.7425 8.93861Z" stroke="#A799FF" stroke-width="1.5" stroke-linecap="round" stroke-linejoin="round"/>
</svg>