<svg width="15" height="14" viewBox="0 0 15 14" fill="none" xmlns="http://www.w3.org/2000/svg">
<path d="M10.416 2.625C10.416 3.10825 10.0242 3.5 9.54102 3.5C9.05778 3.5 8.66602 3.10825 8.66602 2.625C8.66602 2.14175 9.05778 1.75 9.54102 1.75C10.0242 1.75 10.416 2.14175 10.416 2.625Z" stroke-width="1.2"/>
<path d="M9.25 12.251L8.86261 10.725C8.73439 10.22 8.46921 9.75872 8.09541 9.39064L7.20833 8.51704M7.20833 8.51704C6.62045 8.05393 6.32653 7.82241 6.21266 7.51289C6.16193 7.37499 6.1377 7.22881 6.14124 7.08198C6.14917 6.75228 6.3527 6.43827 6.75969 5.81023L7.5 4.66795M7.20833 8.51704L9.25 5.41232M4 6.50664C4.58333 5.35762 5.48031 4.69183 7.5 4.66795M7.5 4.66795C7.62752 4.66644 7.81757 4.66598 8.00738 4.66602C8.30191 4.66606 8.44914 4.66609 8.56645 4.7209C8.68376 4.77571 8.8041 4.91948 9.04478 5.20702C9.11373 5.28941 9.18455 5.36322 9.25 5.41232M9.25 5.41232C9.92358 5.91741 10.9782 6.12088 12.1667 4.78331" stroke-width="1.2" stroke-linecap="round" stroke-linejoin="round"/>
<path d="M2.83398 10.3424L3.22961 10.4364C4.23785 10.6763 5.28587 10.2176 5.75065 9.33301" stroke-width="1.2" stroke-linecap="round" stroke-linejoin="round"/>
</svg>
