<svg xmlns="http://www.w3.org/2000/svg" width="14" height="15" viewBox="0 0 14 15" fill="none">
  <path d="M7.00065 7.49984L4.50813 5.42274C4.1378 5.11413 3.95264 4.95983 3.81952 4.77068C3.70158 4.60308 3.61399 4.41607 3.56074 4.21817C3.50065 3.99481 3.50065 3.75378 3.50065 3.27172V1.6665M7.00065 7.49984L9.49317 5.42274C9.8635 5.11413 10.0487 4.95983 10.1818 4.77068C10.2997 4.60308 10.3873 4.41607 10.4406 4.21817C10.5007 3.99481 10.5007 3.75378 10.5007 3.27172V1.6665M7.00065 7.49984L4.50813 9.57693C4.13781 9.88554 3.95264 10.0398 3.81952 10.229C3.70158 10.3966 3.61399 10.5836 3.56074 10.7815C3.50065 11.0049 3.50065 11.2459 3.50065 11.728V13.3332M7.00065 7.49984L9.49317 9.57694C9.8635 9.88554 10.0487 10.0398 10.1818 10.229C10.2997 10.3966 10.3873 10.5836 10.4406 10.7815C10.5007 11.0049 10.5007 11.2459 10.5007 11.728V13.3332M2.33398 1.6665H11.6673M2.33398 13.3332H11.6673" stroke-width="1.5" stroke-linecap="round" stroke-linejoin="round"/>
</svg>