<svg xmlns="http://www.w3.org/2000/svg" width="14" height="14" viewBox="0 0 14 14" fill="none">
<path d="M6.99935 0.583333V4.08333C6.9985 4.75545 6.76596 5.40673 6.34093 5.9274C5.9159 6.44806 5.32436 6.80628 4.66602 6.94167V13.4167C4.66602 13.5714 4.60456 13.7197 4.49516 13.8291C4.38577 13.9385 4.23739 14 4.08268 14C3.92797 14 3.7796 13.9385 3.6702 13.8291C3.56081 13.7197 3.49935 13.5714 3.49935 13.4167V6.94167C2.84101 6.80628 2.24947 6.44806 1.82443 5.9274C1.3994 5.40673 1.16686 4.75545 1.16602 4.08333V0.583333C1.16602 0.428624 1.22747 0.280251 1.33687 0.170854C1.44627 0.0614582 1.59464 0 1.74935 0C1.90406 0 2.05243 0.0614582 2.16183 0.170854C2.27122 0.280251 2.33268 0.428624 2.33268 0.583333V4.08333C2.33418 4.44398 2.44706 4.79537 2.6559 5.08941C2.86474 5.38345 3.15932 5.60578 3.49935 5.726V0.583333C3.49935 0.428624 3.56081 0.280251 3.6702 0.170854C3.7796 0.0614582 3.92797 0 4.08268 0C4.23739 0 4.38577 0.0614582 4.49516 0.170854C4.60456 0.280251 4.66602 0.428624 4.66602 0.583333V5.726C5.00605 5.60578 5.30063 5.38345 5.50946 5.08941C5.7183 4.79537 5.83119 4.44398 5.83268 4.08333V0.583333C5.83268 0.428624 5.89414 0.280251 6.00354 0.170854C6.11293 0.0614582 6.26131 0 6.41602 0C6.57073 0 6.7191 0.0614582 6.8285 0.170854C6.93789 0.280251 6.99935 0.428624 6.99935 0.583333ZM12.8327 5.83333C12.8066 6.94193 12.5308 8.03036 12.0258 9.0176C11.5208 10.0048 10.7997 10.8655 9.91602 11.5354V13.4167C9.91602 13.5714 9.85456 13.7197 9.74516 13.8291C9.63577 13.9385 9.48739 14 9.33268 14C9.17797 14 9.0296 13.9385 8.9202 13.8291C8.81081 13.7197 8.74935 13.5714 8.74935 13.4167V1.16667C8.74412 0.947487 8.80401 0.731679 8.92145 0.546542C9.03888 0.361405 9.20859 0.215256 9.4091 0.126583C9.63943 0.0328797 9.89206 0.00830093 10.1361 0.0558508C10.3802 0.103401 10.6051 0.22102 10.7834 0.394333C12.1364 1.87889 12.8697 3.82509 12.8327 5.83333ZM11.666 5.83333C11.6826 4.12542 11.0581 2.47338 9.91602 1.20342V9.9575C11.0092 8.8598 11.6362 7.38226 11.666 5.83333Z" />
</svg>