<svg width="32" height="26" viewBox="0 0 32 26" fill="none" xmlns="http://www.w3.org/2000/svg">
<rect width="32" height="26" rx="6" fill="white" fill-opacity="0.12"/>
<path d="M15.9993 6.58333V10.0833C15.9985 10.7555 15.766 11.4067 15.3409 11.9274C14.9159 12.4481 14.3244 12.8063 13.666 12.9417V19.4167C13.666 19.5714 13.6046 19.7197 13.4952 19.8291C13.3858 19.9385 13.2374 20 13.0827 20C12.928 20 12.7796 19.9385 12.6702 19.8291C12.5608 19.7197 12.4993 19.5714 12.4993 19.4167V12.9417C11.841 12.8063 11.2495 12.4481 10.8244 11.9274C10.3994 11.4067 10.1669 10.7555 10.166 10.0833V6.58333C10.166 6.42862 10.2275 6.28025 10.3369 6.17085C10.4463 6.06146 10.5946 6 10.7493 6C10.9041 6 11.0524 6.06146 11.1618 6.17085C11.2712 6.28025 11.3327 6.42862 11.3327 6.58333V10.0833C11.3342 10.444 11.4471 10.7954 11.6559 11.0894C11.8647 11.3834 12.1593 11.6058 12.4993 11.726V6.58333C12.4993 6.42862 12.5608 6.28025 12.6702 6.17085C12.7796 6.06146 12.928 6 13.0827 6C13.2374 6 13.3858 6.06146 13.4952 6.17085C13.6046 6.28025 13.666 6.42862 13.666 6.58333V11.726C14.006 11.6058 14.3006 11.3834 14.5095 11.0894C14.7183 10.7954 14.8312 10.444 14.8327 10.0833V6.58333C14.8327 6.42862 14.8941 6.28025 15.0035 6.17085C15.1129 6.06146 15.2613 6 15.416 6C15.5707 6 15.7191 6.06146 15.8285 6.17085C15.9379 6.28025 15.9993 6.42862 15.9993 6.58333ZM21.8327 11.8333C21.8066 12.9419 21.5308 14.0304 21.0258 15.0176C20.5208 16.0048 19.7997 16.8655 18.916 17.5354V19.4167C18.916 19.5714 18.8546 19.7197 18.7452 19.8291C18.6358 19.9385 18.4874 20 18.3327 20C18.178 20 18.0296 19.9385 17.9202 19.8291C17.8108 19.7197 17.7493 19.5714 17.7493 19.4167V7.16667C17.7441 6.94749 17.804 6.73168 17.9214 6.54654C18.0389 6.3614 18.2086 6.21526 18.4091 6.12658C18.6394 6.03288 18.8921 6.0083 19.1361 6.05585C19.3802 6.1034 19.6051 6.22102 19.7834 6.39433C21.1364 7.87889 21.8697 9.82509 21.8327 11.8333ZM20.666 11.8333C20.6826 10.1254 20.0581 8.47338 18.916 7.20342V15.9575C20.0092 14.8598 20.6362 13.3823 20.666 11.8333Z" fill="#CBFF52"/>
</svg>
