<svg xmlns="http://www.w3.org/2000/svg" width="14" height="14" viewBox="0 0 14 14" fill="none">
  <path d="M9.33333 3.50033V3.03366C9.33333 2.38026 9.33333 2.05357 9.20617 1.804C9.09432 1.58448 8.91584 1.406 8.69632 1.29415C8.44676 1.16699 8.12006 1.16699 7.46667 1.16699H6.53333C5.87994 1.16699 5.55324 1.16699 5.30368 1.29415C5.08416 1.406 4.90568 1.58448 4.79383 1.804C4.66667 2.05357 4.66667 2.38026 4.66667 3.03366V3.50033M5.83333 6.70866V9.62533M8.16667 6.70866V9.62533M1.75 3.50033H12.25M11.0833 3.50033V10.0337C11.0833 11.0138 11.0833 11.5038 10.8926 11.8781C10.7248 12.2074 10.4571 12.4751 10.1278 12.6429C9.75347 12.8337 9.26342 12.8337 8.28333 12.8337H5.71667C4.73657 12.8337 4.24653 12.8337 3.87218 12.6429C3.5429 12.4751 3.27518 12.2074 3.10741 11.8781C2.91667 11.5038 2.91667 11.0138 2.91667 10.0337V3.50033" stroke-width="1.5" stroke-linecap="round" stroke-linejoin="round"/>
</svg>