<svg xmlns="http://www.w3.org/2000/svg" width="14" height="14" viewBox="0 0 14 14" fill="none">
  <path d="M3.89819 2.91699C3.10224 2.95297 2.61045 3.06493 2.26256 3.41341C1.75 3.92685 1.75 4.75323 1.75 6.40597V9.32765C1.75 10.9804 1.75 11.8068 2.26256 12.3202C2.77513 12.8337 3.60008 12.8337 5.25 12.8337H8.75C10.3999 12.8337 11.2248 12.8337 11.7374 12.3202C12.25 11.8068 12.25 10.9804 12.25 9.32765V6.40597C12.25 4.75323 12.25 3.92685 11.7374 3.41341C11.3895 3.06493 10.8978 2.95297 10.1018 2.91699" stroke-width="1.2" stroke-linejoin="round"/>
  <path d="M4.09745 3.81548C3.81711 2.71886 3.67695 2.17055 3.90477 1.76834C3.96542 1.66127 4.04292 1.5642 4.13443 1.48069C4.47818 1.16699 5.05611 1.16699 6.21197 1.16699H7.78673C8.94261 1.16699 9.52052 1.16699 9.86427 1.48069C9.9558 1.5642 10.0333 1.66127 10.0939 1.76834C10.3217 2.17055 10.1816 2.71886 9.90126 3.81548C9.67772 4.68973 9.56602 5.12686 9.26717 5.41455C9.18586 5.49285 9.09562 5.56177 8.9982 5.61994C8.64032 5.83366 8.17961 5.83366 7.25812 5.83366H6.74058C5.81911 5.83366 5.35837 5.83366 5.0005 5.61994C4.90309 5.56177 4.81284 5.49285 4.73151 5.41455C4.43269 5.12686 4.32095 4.68973 4.09745 3.81548Z" stroke-width="1.2" stroke-linejoin="round"/>
  <path d="M5.83398 10.5H8.16732" stroke-width="1.2" stroke-linecap="round" stroke-linejoin="round"/>
  <path d="M6.70898 5.83301L7.29232 4.08301" stroke-width="1.2" stroke-linecap="round" stroke-linejoin="round"/>
</svg>