<svg width="21" height="20" viewBox="0 0 21 20" fill="none" xmlns="http://www.w3.org/2000/svg">
<path d="M10.4993 17.5L10.416 17.3749C9.8371 16.5066 9.54767 16.0725 9.16527 15.7582C8.82673 15.4799 8.43665 15.2712 8.01735 15.1438C7.54372 15 7.02194 15 5.97837 15H4.83268C3.89926 15 3.43255 15 3.07603 14.8183C2.76243 14.6586 2.50746 14.4036 2.34767 14.09C2.16602 13.7335 2.16602 13.2668 2.16602 12.3333V5.16667C2.16602 4.23325 2.16602 3.76654 2.34767 3.41002C2.50746 3.09641 2.76243 2.84144 3.07603 2.68166C3.43255 2.5 3.89926 2.5 4.83268 2.5H5.16602C7.03286 2.5 7.96628 2.5 8.67932 2.86331C9.30652 3.18289 9.81646 3.69282 10.136 4.32003C10.4993 5.03307 10.4993 5.96649 10.4993 7.83333M10.4993 17.5V7.83333M10.4993 17.5L10.5827 17.3749C11.1616 16.5066 11.451 16.0725 11.8334 15.7582C12.172 15.4799 12.562 15.2712 12.9813 15.1438C13.455 15 13.9768 15 15.0203 15H16.166C17.0994 15 17.5661 15 17.9227 14.8183C18.2363 14.6586 18.4912 14.4036 18.651 14.09C18.8327 13.7335 18.8327 13.2668 18.8327 12.3333V5.16667C18.8327 4.23325 18.8327 3.76654 18.651 3.41002C18.4912 3.09641 18.2363 2.84144 17.9227 2.68166C17.5661 2.5 17.0994 2.5 16.166 2.5H15.8327C13.9658 2.5 13.0324 2.5 12.3194 2.86331C11.6922 3.18289 11.1822 3.69282 10.8627 4.32003C10.4993 5.03307 10.4993 5.96649 10.4993 7.83333" stroke="#4B4B77" stroke-width="1.5" stroke-linecap="round" stroke-linejoin="round"/>
</svg>
