<svg width="21" height="20" viewBox="0 0 21 20" fill="none" xmlns="http://www.w3.org/2000/svg">
<path d="M7.27168 11.6668C7.64172 13.1045 8.9468 14.1668 10.5 14.1668C12.0532 14.1668 13.3583 13.1045 13.7283 11.6668M9.68141 2.30345L4.02949 6.69939C3.65168 6.99324 3.46278 7.14017 3.32669 7.32417C3.20614 7.48716 3.11633 7.67077 3.06169 7.866C3 8.08639 3 8.3257 3 8.80433V14.8334C3 15.7669 3 16.2336 3.18166 16.5901C3.34144 16.9037 3.59641 17.1587 3.91002 17.3185C4.26654 17.5001 4.73325 17.5001 5.66667 17.5001H15.3333C16.2668 17.5001 16.7335 17.5001 17.09 17.3185C17.4036 17.1587 17.6586 16.9037 17.8183 16.5901C18 16.2336 18 15.7669 18 14.8334V8.80433C18 8.3257 18 8.08639 17.9383 7.866C17.8837 7.67077 17.7939 7.48716 17.6733 7.32417C17.5372 7.14017 17.3483 6.99324 16.9705 6.69939L11.3186 2.30345C11.0258 2.07574 10.8794 1.96189 10.7178 1.91812C10.5752 1.87951 10.4248 1.87951 10.2822 1.91812C10.1206 1.96189 9.97418 2.07574 9.68141 2.30345Z" stroke="#4B4B77" stroke-width="1.5" stroke-linecap="round" stroke-linejoin="round"/>
</svg>
