<svg width="21" height="20" viewBox="0 0 21 20" fill="none" xmlns="http://www.w3.org/2000/svg">
<path d="M5.57799 9.35717C5.52619 9.02336 5.49932 8.68138 5.49932 8.33317C5.49932 4.65127 8.50372 1.6665 12.2098 1.6665C15.916 1.6665 18.9204 4.65127 18.9204 8.33317C18.9204 9.1649 18.7671 9.96105 18.487 10.6953C18.4288 10.8477 18.3997 10.924 18.3865 10.9835C18.3734 11.0425 18.3684 11.084 18.367 11.1444C18.3655 11.2053 18.3738 11.2725 18.3903 11.4068L18.7258 14.1319C18.7621 14.4269 18.7803 14.5745 18.7312 14.6817C18.6882 14.7756 18.6118 14.8503 18.5169 14.8911C18.4086 14.9377 18.2615 14.9161 17.9674 14.873L15.3131 14.4839C15.1745 14.4636 15.1052 14.4535 15.0421 14.4538C14.9796 14.4542 14.9364 14.4588 14.8753 14.4716C14.8135 14.4846 14.7346 14.5142 14.5768 14.5733C13.8407 14.849 13.043 14.9998 12.2098 14.9998C11.8614 14.9998 11.5191 14.9734 11.1849 14.9226M6.859 18.3332C9.32975 18.3332 11.3327 16.2811 11.3327 13.7498C11.3327 11.2185 9.32975 9.1665 6.859 9.1665C4.38825 9.1665 2.38531 11.2185 2.38531 13.7498C2.38531 14.2587 2.46625 14.7481 2.61564 15.2054C2.67879 15.3988 2.71037 15.4954 2.72073 15.5615C2.73155 15.6304 2.73344 15.6691 2.72942 15.7388C2.72556 15.8055 2.70886 15.8809 2.67547 16.0318L2.16602 18.3332L4.66168 17.9923C4.7979 17.9737 4.86601 17.9644 4.92549 17.9648C4.98812 17.9653 5.02135 17.9687 5.08277 17.9809C5.1411 17.9925 5.22782 18.0231 5.40124 18.0843C5.85818 18.2456 6.34861 18.3332 6.859 18.3332Z" stroke="#4B4B77" stroke-width="1.5" stroke-linecap="round" stroke-linejoin="round"/>
</svg>
