<svg width="20" height="20" viewBox="0 0 20 20" fill="none" xmlns="http://www.w3.org/2000/svg">
<g clip-path="url(#clip0_1146_1284)">
<path d="M10.3408 10.8478C10.7207 9.96733 11.3926 9.2448 12.2433 8.80214C13.0939 8.35948 14.0712 8.22379 15.0103 8.41795C15.9494 8.61211 16.7928 9.12424 17.3981 9.86794C18.0035 10.6116 18.3338 11.5414 18.3333 12.5003C18.3333 15.722 15 18.3337 10.8333 18.3337C7.43584 18.3337 4.03918 17.6503 2.19084 16.282C1.83584 16.0187 1.66501 15.5887 1.67418 15.147C1.76501 10.6028 2.18918 1.66699 8.33334 1.66699C8.99639 1.66699 9.63227 1.93038 10.1011 2.39923C10.57 2.86807 10.8333 3.50395 10.8333 4.16699C10.8333 4.60902 10.6577 5.03294 10.3452 5.3455C10.0326 5.65806 9.60871 5.83366 9.16668 5.83366C8.24584 5.83366 7.80001 5.46366 7.50001 5.00033" stroke="#4B4B77" stroke-width="1.5" stroke-linecap="round" stroke-linejoin="round"/>
<path d="M12.4997 11.667C11.9968 11.2896 11.4149 11.0309 10.7978 10.9103C10.1807 10.7898 9.54431 10.8104 8.93631 10.9707C8.32832 11.1311 7.76449 11.4269 7.28709 11.8362C6.80969 12.2454 6.4311 12.7573 6.17969 13.3337" stroke="#4B4B77" stroke-width="1.5" stroke-linecap="round" stroke-linejoin="round"/>
<path d="M8.30268 5.6875C6.68185 6.6475 7.91602 10.8333 6.66602 12.5" stroke="#4B4B77" stroke-width="1.5" stroke-linecap="round" stroke-linejoin="round"/>
</g>
<defs>
<clipPath id="clip0_1146_1284">
<rect width="20" height="20" fill="white"/>
</clipPath>
</defs>
</svg>
