<svg width="21" height="20" viewBox="0 0 21 20" fill="none" xmlns="http://www.w3.org/2000/svg">
<path d="M17.1673 17.5C17.1673 16.337 17.1673 15.7555 17.0238 15.2824C16.7006 14.217 15.8669 13.3834 14.8016 13.0602C14.3284 12.9167 13.747 12.9167 12.584 12.9167H8.41732C7.25435 12.9167 6.67286 12.9167 6.1997 13.0602C5.13436 13.3834 4.30068 14.217 3.97752 15.2824C3.83398 15.7555 3.83398 16.337 3.83398 17.5M14.2507 6.25C14.2507 8.32107 12.5717 10 10.5007 10C8.42958 10 6.75065 8.32107 6.75065 6.25C6.75065 4.17893 8.42958 2.5 10.5007 2.5C12.5717 2.5 14.2507 4.17893 14.2507 6.25Z" stroke="#4B4B77" stroke-width="1.5" stroke-linecap="round" stroke-linejoin="round"/>
</svg>
