<svg width="24" height="24" viewBox="0 0 24 24" fill="none" xmlns="http://www.w3.org/2000/svg">
<path d="M14.4 14.4L9.59998 9.59998" stroke="#0D0D0D" stroke-width="1.5" stroke-linecap="round" stroke-linejoin="round"/>
<path d="M18.657 21.485C18.282 21.8602 17.7733 22.071 17.2429 22.0711C16.7124 22.0712 16.2037 21.8605 15.8285 21.4855C15.4534 21.1105 15.2426 20.6018 15.2425 20.0714C15.2424 19.5409 15.453 19.0322 15.828 18.657L14.061 20.425C13.6859 20.8002 13.1771 21.0109 12.6465 21.0109C12.116 21.0109 11.6072 20.8002 11.232 20.425C10.8569 20.0499 10.6461 19.5411 10.6461 19.0105C10.6461 18.48 10.8569 17.9712 11.232 17.596L17.596 11.232C17.9712 10.8569 18.48 10.6461 19.0105 10.6461C19.5411 10.6461 20.0499 10.8569 20.425 11.232C20.8002 11.6072 21.0109 12.116 21.0109 12.6465C21.0109 13.1771 20.8002 13.6859 20.425 14.061L18.657 15.828C19.0322 15.453 19.5409 15.2424 20.0714 15.2425C20.6018 15.2426 21.1105 15.4534 21.4855 15.8285C21.8605 16.2037 22.0712 16.7124 22.0711 17.2429C22.071 17.7733 21.8602 18.282 21.485 18.657L18.657 21.485Z" stroke="#0D0D0D" stroke-width="1.5" stroke-linecap="round" stroke-linejoin="round"/>
<path d="M21.5 21.5L20.1 20.1" stroke="#0D0D0D" stroke-width="1.5" stroke-linecap="round" stroke-linejoin="round"/>
<path d="M3.9 3.9L2.5 2.5" stroke="#0D0D0D" stroke-width="1.5" stroke-linecap="round" stroke-linejoin="round"/>
<path d="M6.40401 12.768C6.02886 13.1432 5.52005 13.3539 4.98951 13.3539C4.45897 13.3539 3.95016 13.1432 3.57501 12.768C3.19986 12.3929 2.9891 11.884 2.9891 11.3535C2.9891 10.823 3.19986 10.3142 3.57501 9.93901L5.34301 8.17201C5.15725 8.3577 4.93674 8.50498 4.69407 8.60545C4.45139 8.70592 4.1913 8.7576 3.92865 8.75756C3.39821 8.75746 2.88952 8.54666 2.51451 8.17151C2.32882 7.98575 2.18153 7.76524 2.08106 7.52257C1.9806 7.27989 1.92891 7.0198 1.92896 6.75715C1.92905 6.22671 2.13986 5.71802 2.51501 5.34301L5.34301 2.51501C5.71802 2.13986 6.22671 1.92905 6.75715 1.92896C7.0198 1.92891 7.27989 1.9806 7.52257 2.08106C7.76524 2.18153 7.98575 2.32882 8.17151 2.51451C8.35726 2.7002 8.50462 2.92065 8.60518 3.16329C8.70573 3.40593 8.75751 3.666 8.75756 3.92865C8.7576 4.1913 8.70592 4.45139 8.60545 4.69407C8.50498 4.93674 8.3577 5.15725 8.17201 5.34301L9.93901 3.57501C10.3142 3.19986 10.823 2.9891 11.3535 2.9891C11.884 2.9891 12.3929 3.19986 12.768 3.57501C13.1432 3.95016 13.3539 4.45897 13.3539 4.98951C13.3539 5.52005 13.1432 6.02886 12.768 6.40401L6.40401 12.768Z" stroke="#0D0D0D" stroke-width="1.5" stroke-linecap="round" stroke-linejoin="round"/>
</svg>
