<svg width="25" height="24" viewBox="0 0 25 24" fill="none" xmlns="http://www.w3.org/2000/svg">
<path d="M21 10.5V19.5C21 19.9659 21 20.1989 20.9239 20.3827C20.8224 20.6277 20.6277 20.8224 20.3827 20.9239C20.1989 21 19.9659 21 19.5 21C19.0341 21 18.8011 21 18.6173 20.9239C18.3723 20.8224 18.1776 20.6277 18.0761 20.3827C18 20.1989 18 19.9659 18 19.5V10.5C18 10.0341 18 9.80109 18.0761 9.61732C18.1776 9.37229 18.3723 9.17761 18.6173 9.07612C18.8011 9 19.0341 9 19.5 9C19.9659 9 20.1989 9 20.3827 9.07612C20.6277 9.17761 20.8224 9.37229 20.9239 9.61732C21 9.80109 21 10.0341 21 10.5Z" stroke="#0D0D0D" stroke-width="1.5" stroke-linejoin="round"/>
<path d="M17 3H20V6" stroke="#0D0D0D" stroke-width="1.5" stroke-linecap="round" stroke-linejoin="round"/>
<path d="M19.5 3.5C19.5 3.5 15.5 8.5 5 12" stroke="#0D0D0D" stroke-width="1.5" stroke-linecap="round" stroke-linejoin="round"/>
<path d="M14 14V19.5C14 19.9659 14 20.1989 13.9239 20.3827C13.8224 20.6277 13.6277 20.8224 13.3827 20.9239C13.1989 21 12.9659 21 12.5 21C12.0341 21 11.8011 21 11.6173 20.9239C11.3723 20.8224 11.1776 20.6277 11.0761 20.3827C11 20.1989 11 19.9659 11 19.5V14C11 13.5341 11 13.3011 11.0761 13.1173C11.1776 12.8723 11.3723 12.6776 11.6173 12.5761C11.8011 12.5 12.0341 12.5 12.5 12.5C12.9659 12.5 13.1989 12.5 13.3827 12.5761C13.6277 12.6776 13.8224 12.8723 13.9239 13.1173C14 13.3011 14 13.5341 14 14Z" stroke="#0D0D0D" stroke-width="1.5" stroke-linejoin="round"/>
<path d="M7 16.5V19.5C7 19.9659 7 20.1989 6.92388 20.3827C6.82239 20.6277 6.62771 20.8224 6.38268 20.9239C6.19891 21 5.96594 21 5.5 21C5.03406 21 4.80109 21 4.61732 20.9239C4.37229 20.8224 4.17761 20.6277 4.07612 20.3827C4 20.1989 4 19.9659 4 19.5V16.5C4 16.0341 4 15.8011 4.07612 15.6173C4.17761 15.3723 4.37229 15.1776 4.61732 15.0761C4.80109 15 5.03406 15 5.5 15C5.96594 15 6.19891 15 6.38268 15.0761C6.62771 15.1776 6.82239 15.3723 6.92388 15.6173C7 15.8011 7 16.0341 7 16.5Z" stroke="#0D0D0D" stroke-width="1.5" stroke-linejoin="round"/>
</svg>
