<svg width="61" height="62" viewBox="0 0 61 62" fill="none" xmlns="http://www.w3.org/2000/svg">
<rect x="0.5" y="1" width="60" height="60" rx="30" fill="#F2F2F2"/>
<rect x="0.5" y="1" width="60" height="60" rx="30" stroke="#E6E6E6"/>
<path d="M30.5 36.8128V34.2295" stroke="#0D0D0D" stroke-width="2" stroke-linecap="round"/>
<path d="M20.5119 39.8411C20.8024 41.9985 22.5894 43.6887 24.7639 43.7887C26.5937 43.8727 28.4525 43.9167 30.4994 43.9167C32.5463 43.9167 34.405 43.8727 36.2347 43.7887C38.4094 43.6887 40.1963 41.9985 40.4868 39.8411C40.6763 38.4332 40.8327 36.9902 40.8327 35.5208C40.8327 34.0514 40.6763 32.6085 40.4868 31.2006C40.1963 29.0431 38.4094 27.353 36.2347 27.253C34.405 27.1689 32.5463 27.125 30.4994 27.125C28.4525 27.125 26.5937 27.1689 24.7639 27.253C22.5894 27.353 20.8024 29.0431 20.5119 31.2006C20.3224 32.6085 20.166 34.0514 20.166 35.5208C20.166 36.9902 20.3224 38.4332 20.5119 39.8411Z" stroke="#0D0D0D" stroke-width="2"/>
<path d="M24.6875 27.1247V23.8955C24.6875 20.6854 27.2898 18.083 30.5 18.083C33.7102 18.083 36.3125 20.6854 36.3125 23.8955V27.1247" stroke="#0D0D0D" stroke-width="2" stroke-linecap="round" stroke-linejoin="round"/>
</svg>
