<svg width="19" height="18" viewBox="0 0 19 18" fill="none" xmlns="http://www.w3.org/2000/svg">
<path d="M9.5 12.375V10.875" stroke="#F2F2F2" stroke-width="1.5" stroke-linecap="round"/>
<path d="M3.70086 14.1335C3.86952 15.3862 4.9071 16.3676 6.16974 16.4257C7.2322 16.4745 8.31148 16.5 9.5 16.5C10.6885 16.5 11.7678 16.4745 12.8302 16.4257C14.0929 16.3676 15.1305 15.3862 15.2992 14.1335C15.4093 13.316 15.5 12.4782 15.5 11.625C15.5 10.7718 15.4093 9.93398 15.2992 9.11648C15.1305 7.86375 14.0929 6.88237 12.8302 6.82432C11.7678 6.77548 10.6885 6.75 9.5 6.75C8.31148 6.75 7.2322 6.77548 6.16974 6.82432C4.9071 6.88237 3.86952 7.86375 3.70086 9.11648C3.59079 9.93398 3.5 10.7718 3.5 11.625C3.5 12.4782 3.59079 13.316 3.70086 14.1335Z" stroke="#F2F2F2" stroke-width="1.5"/>
<path d="M6.125 6.75V4.875C6.125 3.01104 7.63604 1.5 9.5 1.5C10.9695 1.5 12.125 2.625 12.5 3.75" stroke="#F2F2F2" stroke-width="1.5" stroke-linecap="round" stroke-linejoin="round"/>
</svg>
