<svg width="25" height="24" viewBox="0 0 25 24" fill="none" xmlns="http://www.w3.org/2000/svg">
<path d="M12.9082 13.017C13.3641 11.9604 14.1704 11.0934 15.1912 10.5622C16.2119 10.031 17.3847 9.86815 18.5116 10.1011C19.6385 10.3341 20.6505 10.9487 21.377 11.8411C22.1034 12.7336 22.4998 13.8493 22.4992 15C22.4992 18.866 18.4992 22 13.4992 22C9.42223 22 5.34623 21.18 3.12823 19.538C2.70223 19.222 2.49723 18.706 2.50823 18.176C2.61723 12.723 3.12623 2 10.4992 2C11.2949 2 12.0579 2.31607 12.6206 2.87868C13.1832 3.44129 13.4992 4.20435 13.4992 5C13.4992 5.53043 13.2885 6.03914 12.9134 6.41421C12.5384 6.78929 12.0297 7 11.4992 7C10.3942 7 9.85923 6.556 9.49923 6" stroke="#F2F2F2" stroke-width="1.5" stroke-linecap="round" stroke-linejoin="round"/>
<path d="M15.5 14.0001C14.8965 13.5472 14.1983 13.2368 13.4578 13.0921C12.7172 12.9474 11.9536 12.9722 11.224 13.1646C10.4944 13.357 9.81778 13.712 9.2449 14.2031C8.67202 14.6941 8.21771 15.3085 7.91602 16.0001" stroke="#F2F2F2" stroke-width="1.5" stroke-linecap="round" stroke-linejoin="round"/>
<path d="M10.464 6.82495C8.519 7.97695 10 13 8.5 15" stroke="#F2F2F2" stroke-width="1.5" stroke-linecap="round" stroke-linejoin="round"/>
</svg>
