<svg width="24" height="24" viewBox="0 0 24 24" fill="none" xmlns="http://www.w3.org/2000/svg">
<path d="M18.25 2.5V4.75H18H17.75V2.5H18.25ZM14.5 5.75H16.75V6V6.25H14.5V5.75ZM17.75 7.25H18H18.25V9.5H17.75V7.25ZM21.5 6.25H19.25V6V5.75H21.5V6.25Z" fill="#F2F2F2" stroke="#F2F2F2"/>
<path d="M11.5 3C7.02166 3 4.78249 3 3.39124 4.39124C2 5.78249 2 8.02166 2 12.5C2 16.9783 2 19.2175 3.39124 20.6088C4.78249 22 7.02166 22 11.5 22C15.9783 22 18.2175 22 19.6088 20.6088C21 19.2175 21 16.9783 21 12.5V12" stroke="#F2F2F2" stroke-width="1.5" stroke-linecap="round"/>
<path d="M2 14.1354C2.61902 14.0455 3.24484 14.0011 3.87171 14.0027C6.52365 13.9466 9.11064 14.7729 11.1711 16.3342C13.082 17.7821 14.4247 19.7749 15 22" stroke="#F2F2F2" stroke-width="1.5" stroke-linejoin="round"/>
<path d="M21 16.8962C19.8246 16.3009 18.6088 15.9988 17.3862 16.0001C15.5345 15.9928 13.7015 16.6733 12 18" stroke="#F2F2F2" stroke-width="1.5" stroke-linejoin="round"/>
</svg>
