<svg width="16" height="16" viewBox="0 0 16 16" fill="none" xmlns="http://www.w3.org/2000/svg">
<path d="M11.2973 2.11504C11.6888 1.72353 11.8845 1.52778 12.1014 1.43416C12.4139 1.29929 12.7681 1.29929 13.0805 1.43416C13.2973 1.52778 13.4931 1.72353 13.8846 2.11504C14.2761 2.50656 14.4719 2.70231 14.5655 2.91918C14.7004 3.23161 14.7004 3.58584 14.5655 3.89827C14.4719 4.11514 14.2761 4.31089 13.8846 4.7024L10.5369 8.05014C9.71213 8.87494 9.29973 9.28734 8.7832 9.53168C8.26667 9.77601 7.68627 9.83328 6.52549 9.94781L6.24262 9.97573C6.11707 9.98812 6.01155 9.8826 6.02394 9.75706L6.05185 9.47421C6.16639 8.31341 6.22366 7.73301 6.46801 7.21648C6.71233 6.69994 7.12473 6.28756 7.94953 5.46277L11.2973 2.11504Z" fill="#0D0D0D"/>
<path d="M4.00065 10H2.50065C1.85632 10 1.33398 10.5223 1.33398 11.1667C1.33398 11.811 1.85632 12.3333 2.50065 12.3333H8.83398C9.47832 12.3333 10.0007 12.8557 10.0007 13.5C10.0007 14.1443 9.47832 14.6667 8.83398 14.6667H7.33398" stroke="#0D0D0D" stroke-width="1.5" stroke-linecap="round" stroke-linejoin="round"/>
</svg>
