<svg width="375" height="328" viewBox="0 0 375 328" fill="none" xmlns="http://www.w3.org/2000/svg">
<path d="M375 17.6885L351.562 50.4629C340.07 66.5338 316.18 66.5337 304.688 50.4629C293.195 34.3919 269.305 34.3919 257.812 50.4629C246.32 66.5337 222.43 66.5337 210.938 50.4629C199.445 34.3919 175.555 34.3919 164.062 50.4629C152.57 66.5337 128.68 66.5337 117.188 50.4629C105.695 34.3919 81.8051 34.3919 70.3125 50.4629C58.8199 66.5337 34.9301 66.5337 23.4375 50.4629L0 17.6885V0L23.4375 31.6191C35.1011 47.3537 58.6489 47.3537 70.3125 31.6191C81.9761 15.8842 105.524 15.8842 117.188 31.6191C128.851 47.3537 152.399 47.3537 164.062 31.6191C175.726 15.8842 199.274 15.8842 210.938 31.6191C222.601 47.3537 246.149 47.3537 257.812 31.6191C269.476 15.8842 293.024 15.8842 304.688 31.6191C316.351 47.3537 339.899 47.3537 351.562 31.6191L375 0V17.6885Z" fill="#CBFF52"/>
<path d="M375 327.549H0V17L23.4375 49.7744C34.9301 65.8452 58.8199 65.8452 70.3125 49.7744C81.8051 33.7034 105.695 33.7034 117.188 49.7744C128.68 65.8452 152.57 65.8452 164.062 49.7744C175.555 33.7034 199.445 33.7034 210.938 49.7744C222.43 65.8452 246.32 65.8452 257.812 49.7744C269.305 33.7034 293.195 33.7034 304.688 49.7744C316.18 65.8452 340.07 65.8453 351.562 49.7744L375 17V327.549Z" fill="#f2f2f2"/>
</svg>
