<svg width="281" height="337" viewBox="0 0 281 337" fill="none" xmlns="http://www.w3.org/2000/svg">
<path d="M281 30.5C269.512 46.6845 245.774 47.0461 234.287 30.8616C222.798 14.677 198.917 14.677 187.428 30.8616C175.941 47.0461 152.06 47.0461 140.572 30.8616C129.084 14.677 105.203 14.677 93.7139 30.8616C82.2263 47.0461 58.3454 47.0461 46.8577 30.8616C35.3691 14.677 11.4882 14.3154 0 30.5V13.4609C11.6592 -2.38521 35.1981 -3.96154 46.8577 11.8846C58.5163 27.7305 82.0554 27.7305 93.7139 11.8846C105.374 -3.96154 128.913 -3.96154 140.572 11.8846C152.231 27.7305 175.77 27.7305 187.428 11.8846C199.088 -3.96154 222.627 -3.96154 234.287 11.8846C245.945 27.7305 269.341 29.3458 281 13.5V30.5Z" fill="#CBFF52"/>
<path d="M0 26.9592C11.4882 10.7747 35.3687 11.1362 46.8574 27.3205C58.1655 43.2519 81.4825 43.5009 93.166 28.0676L94.2617 26.5734C105.946 11.14 129.263 11.389 140.572 27.3205C151.88 43.2519 175.197 43.5009 186.881 28.0676L187.977 26.5734C199.661 11.1403 222.977 11.3893 234.286 27.3205C245.774 43.5049 269.512 43.1436 281 26.9592V336.459H0V26.9592Z" fill="#f2f2f2"/>
</svg>
